/* XPM */
static char *result[] = {
/* columns rows colors chars-per-pixel */
"32 32 27 1 ",
"  c #211900",
". c #211A00",
"X c #211B00",
"o c #221A00",
"O c #221B00",
"+ c #231B00",
"@ c #3D3415",
"# c #3D3416",
"$ c #584D2A",
"% c #584D2B",
"& c #73653F",
"* c #736540",
"= c #8E7F54",
"- c #8E7E55",
"; c #A39265",
": c #A39266",
"> c #A9976A",
", c #A9976B",
"< c #C4B07F",
"1 c #C4B080",
"2 c #D1BC8A",
"3 c #D1BD8A",
"4 c #D2BC8A",
"5 c #DFC994",
"6 c #DFC995",
"7 c #FAE2AA",
"8 c None",
/* pixels */
"888888888888888888+OOOO888888888",
"888888888888888888+OOOO888888888",
"8888888888888888++;1-OO888888888",
"8888888888888888OO17>OO888888888",
"8888888888888888**27>OO888888888",
"88888888888888OO7777>OO888888888",
"88888888888888##7777>OO888888888",
"88888888888 O%777777>OO888888888",
"88888888888 O%777777>OO888888888",
"ooooooooooo:66777777>OO888888888",
"OOOOOOOOOOO>77777777>OO888888888",
"OO-,,,,,,,,673&&&&676,:++8888888",
"OO17777777777<OOOO17776OO8888888",
"XX:<27777776<;XXXX:<276%%8888888",
"88+O*777777*OX8888+O*7777@O88888",
"88+O*777777*OX8888+O*7777@O88888",
"88888O@7777*OX8888+O*777777*OX88",
"88888O@7777*OX8888+O*777777*OX88",
"8888888$$6741;++++;1677777741;++",
"8888888OO6777<OOOO17777777777<OO",
"8888888OO;>676****276>>>>>>>>-OO",
"888888888XO>77777777>OOOOOOOOOOO",
"888888888XO>77777755;...........",
"888888888XO>777777$O+88888888888",
"888888888XO>777777$O+88888888888",
"888888888XO>7777@@88888888888888",
"888888888XO>7777OO88888888888888",
"888888888XO>73&&8888888888888888",
"888888888XO>7<OO8888888888888888",
"888888888XO=<;XX8888888888888888",
"888888888XOOOX888888888888888888",
"888888888XOOOX888888888888888888"
};
