/* XPM */
static char *result[] = {
/* columns rows colors chars-per-pixel */
"32 32 40 1 ",
"  c #221B00",
". c #231B00",
"X c #221C00",
"o c #221D00",
"O c #30280B",
"+ c #372F10",
"@ c #3B3114",
"# c #3D3415",
"$ c #413818",
"% c #463D1C",
"& c #4B4120",
"* c #4C4120",
"= c #594D2A",
"- c #655935",
"; c #665934",
": c #665A35",
"> c #6B5E39",
", c #70623D",
"< c #74663F",
"1 c #796B44",
"2 c #817349",
"3 c #81734B",
"4 c #87784F",
"5 c #8E7F55",
"6 c #8E7F56",
"7 c #9C8B60",
"8 c #A9976A",
"9 c #A9976B",
"0 c #B7A475",
"q c #C4B080",
"w c #C4B180",
"e c #D1BC8A",
"r c #DFC895",
"t c #DFC995",
"y c #E0C895",
"u c #E0C995",
"i c #ECD69F",
"p c #EDD69F",
"a c #FBE2AA",
"s c None",
/* pixels */
"ssssssssssssssssssssssssssssssss",
"ssssssssssssssssssssssssssssssss",
"ssssXXosssssssssssssssssssssssss",
"sssoXXXXsssssssssssssssssXXsssss",
"sssXX7#XXXsssssssssss.X$1XXXosss",
"sssX<au3XXXXsssoosXX><X8a7XX sss",
"ssss4aaau<XXXosXX63Xyauaa5XXssss",
"ssssX#aaaa9#XXy6#aapaaaatXXXssss",
"sss X<aaaaaa76aaaaaaaaaa<XXsssss",
"sssss0aaaaaaaaaaaaaaaaa0XXssssss",
"ssssoX<aaaaaaaa=eaaaaaa#XXssssss",
"ssssXX6aaaat#87XX<raaa9XXsssssss",
"sssssseaaaa<XXsXXXXqat#X sssssss",
"ssssso#0aa9XXssssX-aa9XXssssssss",
"sssssXX6aa#XXsssss5aaau@ssssssss",
"ssssss+aaa9#ssssssX#patXosssssss",
"sssssso:raa9sssssXX<aa3XXsssssss",
"ssssssXX8aa#XXssoXXyaaa6ssssssss",
"sssssXX#aap<XXX$#X6aaaatXsssssss",
"sssssXXwaaaau;X8a9paaaa<XXssssss",
"ssssXX<aaaaaaawaaaaaaaau;sssssss",
"sssoXXyaaaaaaaaairaaaaaatossssss",
"sssXX6aaaaaaa9ra##8aaaaa*XXsssss",
"ss.X#paaaa9rt##,XXX#eaaa9#ssssss",
"ssXX8at2r9XX%XXss XXX<raa0ssssss",
"sXXX&r5XXsXXsssssssXXXX5a#XXssss",
"ssXXXXsXXssssssssssssXXXOXXsssss",
"ssssXsssssssssssssssss XXXssssss",
"ssssssssssssssssssssssss Xssssss",
"ssssssssssssssssssssssssssssssss",
"ssssssssssssssssssssssssssssssss",
"ssssssssssssssssssssssssssssssss"
};
