/* XPM */
static char *result[] = {
/* columns rows colors chars-per-pixel */
"32 32 6 1 ",
"  c black",
". c #610000",
"X c #AB0000",
"o c red",
"O c #FF6666",
"+ c white",
/* pixels */
"                                ",
"                                ",
"  oooooo                XXXX..  ",
"  oooooo                XXXX..  ",
"  oooooooo            XXXXXX..  ",
"  oooooooo            XXXXXX..  ",
"  ooooooooXX        XXXXXXXX..  ",
"  ooooooooXX        XXXXXXXX..  ",
"  XXooooooXX        XXXXXXXX..  ",
"  XXooooooXX        XXXXXXXX..  ",
"    XXooooXX        XXXXXX..    ",
"    XXooooXX        XXXXXX..    ",
"      XXXXXXoooooooo......      ",
"      XXXXXXoooooooo......      ",
"          oooooooooooo          ",
"          oooooooooooo          ",
"          oooo++OO++oo          ",
"          oooo++OO++oo          ",
"          ooooOO++OOoo          ",
"          ooooOO++OOoo          ",
"        XXXXoo++OO++oo..        ",
"        XXXXoo++OO++oo..        ",
"      XX    XXoooooo    ..      ",
"      XX    XXoooooo    ..      ",
"          XX        ..          ",
"          XX        ..          ",
"          XX        ..          ",
"          XX        ..          ",
"                                ",
"                                ",
"                                ",
"                                "
};
